<mxfile host="app.diagrams.net" modified="2023-12-28T03:15:10.119Z" agent="Mozilla/5.0 (Windows NT 10.0; Win64; x64) AppleWebKit/537.36 (KHTML, like Gecko) Chrome/92.0.4515.159 Safari/537.36" version="22.1.15" etag="UNCijh0kkKidrr_lLpO_" type="github">
  <diagram name="第 1 页" id="RaAsG3w7D9-E8X_579AS">
    <mxGraphModel>
      <root>
        <mxCell id="0" />
        <mxCell id="1" parent="0" />
      </root>
    </mxGraphModel>
  </diagram>
</mxfile>
